# xmcd CD database file
#
# Track frame offsets:
#	150
#	23720
#	43815
#	74028
#	121164
#	144329
#	170032
#	199792
#	228809
#
# Disc length: 3949 seconds
#
# Revision: 0
# Processed by: cddbd v1.4PL0 Copyright (c) Steve Scherf et al.
# Submitted via: CDex 1.50
#
DISCID=7c0f6b09
DTITLE=Esbjörn Svensson Trio - Strange Place for Snow
DYEAR=2002
DGENRE=Jazz
TTITLE0=The Message 
TTITLE1=Serenade For The Renegade 
TTITLE2=Strange Place For Snow 
TTITLE3=Behind The Yashmak 
TTITLE4=Bound For The Beauty Of The South
TTITLE5=Years Of Yearning 
TTITLE6=When God Created The Coffeebreak 
TTITLE7=Spunky Sprawl 
TTITLE8=Carcrash 
EXTD=YEAR: 2002
EXTT0=
EXTT1=
EXTT2=
EXTT3=
EXTT4=
EXTT5=
EXTT6=
EXTT7=
EXTT8=
PLAYORDER=
